<?xml version="1.0" encoding="utf-8"?>
<!-- Generator: Adobe Illustrator 24.2.0, SVG Export Plug-In . SVG Version: 6.00 Build 0)  -->
<svg version="1.1" id="Capa_1" xmlns="http://www.w3.org/2000/svg" xmlns:xlink="http://www.w3.org/1999/xlink" x="0px" y="0px"
	 viewBox="0 0 900 264" style="enable-background:new 0 0 900 264;" xml:space="preserve">
<style type="text/css">
	.st0{fill:#1D8AED;}
	.st1{fill:#FFFFFF;}
</style>
<g>
	<g>
		<g>
			<g>
				<path class="st0" d="M170.4,5.7V55c0,16-12.9,28.9-28.9,28.9h-0.4l0,0c-8-0.1-15.2,0-15.2,0c-1.4,0-2.9-0.2-4.2,0
					c-9,0.9-16.8,5-23.4,12.3c-0.2,0.2-0.4,0.4-0.5,0.6c-5.3,6.9-8.2,15.7-8.2,25.3v0.5c0,6.1,1.2,12,3.5,17.2
					c2.3,5.2,1.1,11.3-3.3,15c-4.3,3.6-9.4,7.8-12.8,10.6c-10-11.3-15.8-26.1-15.8-42.3v-0.5c0-35.2,28.2-64.5,66.4-64.5
					c2.4,0,10.2,0,13.8,0V0.4C138.3,0.2,135.2,0,132,0C59.1,0,0,59.1,0,132c0,59.6,39.4,109.9,93.6,126.3v-48.9
					c0-16.1,13.1-29.2,29.2-29.2h0.1l0,0c8,0.1,15.2,0,15.2,0c1.4,0,2.9,0.1,4.2,0c9-0.9,16.8-5,23.4-12.3c0.2-0.2,0.4-0.4,0.5-0.6
					c5.3-6.9,8.2-15.7,8.2-25.3v-0.5c0-4.8-2-11.2-4-16.4c-2.2-5.8-0.5-12.4,4.2-16.3c4.1-3.4,8.2-6.8,12.4-10.1
					c10,11.3,15.8,26.1,15.8,42.3v0.5c0,35.2-28.2,64.5-66.4,64.5c-2.4,0-10.2,0-13.8,0v57.5c3.1,0.2,6.2,0.4,9.4,0.4
					c72.9,0,132-59.1,132-132C264,72.5,224.6,22.2,170.4,5.7z"/>
				<g>
					<g>
						<path class="st1" d="M822.8,117v104.2l0,0c16.8,0,30.4-13.6,30.4-30.4V86.6l0,0C836.4,86.6,822.8,100.2,822.8,117z"/>
						<path class="st1" d="M768.1,73.4L768.1,73.4h101.2c16.9,0,30.7-13.7,30.7-30.7l0,0H798.8C781.8,42.8,768.1,56.5,768.1,73.4z"
							/>
					</g>
					<path class="st1" d="M408.9,43.2c-3.4,2.7-8.4,6.8-12.8,10.5c-5.1,4.3-6.6,11.4-4,17.6c2.2,5.4,3.4,11.3,3.4,17.5v0.5
						c0,10.2-3.1,19.6-8.7,26.9c-0.1,0.1-0.2,0.2-0.2,0.3c-7.1,7.9-15.5,12.4-25.2,13.4c-1.4,0.1-3,0-4.5,0c0,0-7.7,0.1-16.2,0l0,0
						h-0.1c-17.2,0-31.1,13.9-31.1,31.1v60.3l0,0c17.1,0,30.9-13.8,30.9-30.9v-32.8c3.9,0,12.2,0,14.7,0c40.7,0,70.7-31.2,70.7-68.7
						v-0.5C425.7,71,419.5,55.2,408.9,43.2z"/>
					<g>
						<path class="st1" d="M659,43.1v152.6c0,14-11.4,25.4-25.4,25.4h-4.7V68.6c0-14,11.4-25.4,25.4-25.4L659,43.1L659,43.1z"/>
					</g>
					<g>
						<path class="st1" d="M613.3,132.5c0.1,12.1-2.1,23.6-6.8,34.4c-4.6,10.9-10.9,20.4-19,28.5c-4.5,4.5-9.5,8.6-14.9,12.1
							c-4.2,2.7-8.6,5.2-13.3,7.3c-2.9,1.3-6,2.5-9,3.4c-3.3,1-6.7,1.9-10.1,2.5c-0.1,0-0.2-0.1-0.2-0.1l-0.1-17.5v-0.6
							c0.1-6,3.4-11.3,8.2-14.2c0.6-0.3,1.2-0.6,2-1c6.4-3.1,12.1-7.1,17-12.1c5.5-5.4,9.7-11.9,12.8-19.2s4.7-15.1,4.6-23.2v0
							c0.1-8.1-1.5-15.9-4.6-23.2c-3.1-7.3-7.4-13.8-12.8-19.2c-4.9-4.9-10.6-9-17-12.1c-0.7-0.3-1.4-0.7-2-1
							c-4.9-2.9-8.2-8.2-8.2-14.2v-0.6l0.1-17.5c0-0.1,0.1-0.1,0.2-0.1c3.4,0.7,6.8,1.5,10.1,2.5c3,0.9,6.1,2.1,9,3.4
							c4.7,2.1,9.2,4.5,13.3,7.3c5.4,3.5,10.3,7.5,14.9,12.1c8,8.1,14.3,17.6,19,28.5c4.6,10.8,6.9,22.3,6.8,34.4V132.5z"/>
						<path class="st1" d="M436,132.5c-0.1,12.1,2.1,23.6,6.8,34.4c4.6,10.9,10.9,20.4,19,28.5c4.5,4.5,9.5,8.6,14.9,12.1
							c4.1,2.7,8.6,5.2,13.3,7.3c2.9,1.3,6,2.5,9,3.4c3.3,1,6.7,1.9,10.1,2.5c0.1,0,0.2-0.1,0.2-0.1l0.1-17.5v-0.6
							c-0.1-6-3.4-11.3-8.2-14.2c-0.6-0.3-1.2-0.6-2-1c-6.4-3.1-12.1-7.1-17-12.1c-5.5-5.4-9.7-11.9-12.9-19.2s-4.7-15.1-4.6-23.2v0
							c-0.1-8.1,1.5-15.9,4.6-23.2c3.1-7.3,7.4-13.8,12.9-19.2c4.9-4.9,10.6-9,17-12.1c0.7-0.3,1.4-0.7,2-1
							c4.9-2.9,8.2-8.2,8.2-14.2v-0.6l-0.1-17.5c0-0.1-0.1-0.1-0.2-0.1c-3.4,0.7-6.8,1.5-10.1,2.5c-3,0.9-6.1,2.1-9,3.4
							c-4.7,2.1-9.1,4.5-13.3,7.3c-5.4,3.5-10.3,7.5-14.9,12.1c-8,8.1-14.3,17.6-19,28.5c-4.6,10.8-6.9,22.3-6.8,34.4V132.5z"/>
					</g>
					<path class="st1" d="M679.6,139.2c-2.5-4.4-2.7-9.7-0.7-14.3l39.5-67.3c4-8.8,12.8-14.4,22.4-14.4h17.3l-1.9,4.2l-46.8,84.9
						l61.5,88.9h-21.6c-8.9,0-17-4.8-21.4-12.5L679.6,139.2z"/>
				</g>
			</g>
		</g>
	</g>
</g>
</svg>
